<svg xmlns="http://www.w3.org/2000/svg" viewBox="0 0 118.71 147.23"><defs><style>.cls-1{isolation:isolate;}.cls-2{fill:#ff8482;}.cls-3{fill:#ff5b59;}.cls-4{fill:#6f87ed;}.cls-5{fill:#420e2f;}.cls-6{fill:#7c1a59;}.cls-7,.cls-9{fill:#fdb193;}.cls-8{fill:#ff8282;opacity:0.39;}.cls-9{opacity:0.55;mix-blend-mode:multiply;}.cls-10{fill:#fdd5c5;}.cls-11{fill:#230f0b;}.cls-12{fill:#e8132c;}.cls-13{fill:#ff6a68;}.cls-14{fill:#25110d;}</style></defs><title>avatar</title><g class="cls-1"><g id="Layer_1" data-name="Layer 1"><path class="cls-2" d="M136.36,153.17c-20.27-8.16-26.94-18.3-25.21-32.88H88.85c1.73,14.58-4.94,24.72-25.21,32.88s-23,17.06-23,17.06H159.36S156.64,161.33,136.36,153.17Z" transform="translate(-40.64 -23)"/><path class="cls-3" d="M99.85,144.06A34.42,34.42,0,0,0,116.14,140c-4.49-5.57-5.9-12-5-19.66H88.85c.92,7.71-.52,14.19-5.08,19.78A34.52,34.52,0,0,0,99.85,144.06Z" transform="translate(-40.64 -23)"/><path class="cls-4" d="M136.36,153.17c-7-2.83-12.41-5.89-16.39-9.3l-18.68,17.36L80.23,143.69c-4,3.48-9.44,6.6-16.59,9.48-20.28,8.16-23,17.06-23,17.06H159.36S156.64,161.33,136.36,153.17Z" transform="translate(-40.64 -23)"/><path class="cls-2" d="M71.19,93.79c3.73,7.15,2.17,15.34-3.5,18.31s-13.29-.43-17-7.58-2.17-15.34,3.5-18.3S67.45,86.64,71.19,93.79Z" transform="translate(-40.64 -23)"/><path class="cls-3" d="M67.91,107.44c0-.3-.08-.55-.11-.83a4.68,4.68,0,0,1,.08.51,10.35,10.35,0,0,0-.61-3.58A17.34,17.34,0,0,0,53,90.22a37.52,37.52,0,0,1,11.53,10.44c-4.07-1.66-10.36,1.85-10.36,1.85,7.46-2,10.86-.34,12.41,1.56A16.59,16.59,0,0,1,67.91,107.44Z" transform="translate(-40.64 -23)"/><path class="cls-2" d="M128.51,93.79c-3.74,7.15-2.17,15.34,3.5,18.31s13.29-.43,17-7.58,2.18-15.34-3.49-18.3S132.24,86.64,128.51,93.79Z" transform="translate(-40.64 -23)"/><path class="cls-3" d="M131.79,107.44c0-.3.07-.55.1-.83,0,.21-.06.37-.08.51a10.57,10.57,0,0,1,.62-3.58,17.33,17.33,0,0,1,14.26-13.32,37.35,37.35,0,0,0-11.52,10.44c4.07-1.66,10.35,1.85,10.35,1.85-7.46-2-10.85-.34-12.41,1.56A16.84,16.84,0,0,0,131.79,107.44Z" transform="translate(-40.64 -23)"/><path class="cls-5" d="M144.3,63.46c4.6-10.07,10.23-27.87-12.54-38.25.17.09-9.73-8.25-27.32,6.91-5.61,4.93-13.14,7.08-20.27,4.73S67.7,34.76,62.45,47.65A20.13,20.13,0,0,0,60.82,57c-1.65-2.07-3.9-3.43-6-.12-1.7,2.62-.3,14.22,3.8,24.7,0,0,2.4,25.2,13.89,29.12l11.31-15.5c9.37-.23,21.05-.53,30.66-.75l11.85,16.25c8.21-2.8,11.77-16.44,13.14-24,.45-.5.89-1,1.34-1.49,5.29-5.85,7.29-14,4.05-20.64C144.69,64.16,144.5,63.81,144.3,63.46Z" transform="translate(-40.64 -23)"/><path class="cls-6" d="M84.17,36.85c-7.1-2.36-16.47-2.09-21.72,10.8a23.1,23.1,0,0,0-1.23,3.92l.29.71S68.46,36,84.17,36.85Z" transform="translate(-40.64 -23)"/><path class="cls-6" d="M131.76,25.21c.13.07-5.85-5-16.81,0,2.15,0,29.52.28,33.06,27.11C149.66,43,147.45,32.37,131.76,25.21Z" transform="translate(-40.64 -23)"/><path class="cls-7" d="M89.41,53.13a24,24,0,0,0-24,23.7l-.24,22.83c0,20.88,15.5,37.81,34.63,37.81s34.62-16.93,34.62-37.81l-.06-24.22c0-12.33-8-29.32-20.29-29.32Z" transform="translate(-40.64 -23)"/><path class="cls-8" d="M102.58,121.24s6.21.19,8.43-4.75c0,0,1.76,3.59-2.47,5.71S102.58,121.24,102.58,121.24Z" transform="translate(-40.64 -23)"/><path class="cls-9" d="M134.41,75.44c0-12.33-8-29.32-20.29-29.32l-24.71,7a24,24,0,0,0-24,23.7l-.11,10.82,3.48-6c0-.1,2.39-10.28,24.33-10.56,7.66-.1,17-2.34,23-11.13,2.18,6.56,5.82,12.45,10.16,16a16.43,16.43,0,0,0,8,3.7Z" transform="translate(-40.64 -23)"/><path class="cls-10" d="M99.85,132.56A36.67,36.67,0,0,1,67.13,112c4.69,14.8,17.56,25.44,32.72,25.44s28-10.64,32.72-25.44A36.68,36.68,0,0,1,99.85,132.56Z" transform="translate(-40.64 -23)"/><path class="cls-11" d="M110.39,106.25a10.32,10.32,0,0,1,.62,3.53,9.8,9.8,0,0,1-19.44,2Z" transform="translate(-40.64 -23)"/><path class="cls-12" d="M101.19,119.85a9.48,9.48,0,0,1-4.64-1.2,10,10,0,0,1,10-7.67,10.64,10.64,0,0,1,4.28.89A9.87,9.87,0,0,1,101.19,119.85Z" transform="translate(-40.64 -23)"/><path class="cls-13" d="M104.79,100.23c0,3.27-2.21,5.93-4.94,5.93s-4.95-2.66-4.95-5.93,2.22-7.38,4.95-7.38S104.79,97,104.79,100.23Z" transform="translate(-40.64 -23)"/><path class="cls-14" d="M117.67,89.69c0,2.72-.92,4.92-2,4.92s-2.06-2.2-2.06-4.92.92-4.91,2.06-4.91S117.67,87,117.67,89.69Z" transform="translate(-40.64 -23)"/><path class="cls-5" d="M125.29,84.31c.27-.15-11.12-7.35-18.15-7.09-.08.12.14-6.28,9.47-2.93C125.64,78,125.21,84.42,125.29,84.31Z" transform="translate(-40.64 -23)"/><ellipse class="cls-14" cx="43.44" cy="66.69" rx="2.05" ry="4.92"/><path class="cls-5" d="M73.36,84.31c-.26-.15,11.12-7.35,18.15-7.09.09.12-.14-6.28-9.46-2.93C73,78,73.45,84.42,73.36,84.31Z" transform="translate(-40.64 -23)"/><path class="cls-13" d="M79.16,106.4a.93.93,0,0,1-.4-.09.91.91,0,0,1-.42-1.22l2.87-5.94a.91.91,0,1,1,1.63.79L80,105.88A.92.92,0,0,1,79.16,106.4Z" transform="translate(-40.64 -23)"/><path class="cls-13" d="M73.42,106.4a.93.93,0,0,1-.4-.09.91.91,0,0,1-.42-1.22l2.87-5.94a.91.91,0,0,1,1.64.79l-2.87,5.94A.91.91,0,0,1,73.42,106.4Z" transform="translate(-40.64 -23)"/><path class="cls-13" d="M120,106.4a.92.92,0,0,1-.83-.52l-2.86-5.94a.91.91,0,1,1,1.63-.79l2.87,5.94a.91.91,0,0,1-.42,1.22A.92.92,0,0,1,120,106.4Z" transform="translate(-40.64 -23)"/><path class="cls-13" d="M125.73,106.4a.91.91,0,0,1-.82-.52L122,99.94a.91.91,0,0,1,1.64-.79l2.87,5.94a.91.91,0,0,1-.42,1.22A.93.93,0,0,1,125.73,106.4Z" transform="translate(-40.64 -23)"/><path class="cls-5" d="M136,65.59,119.7,37.8,80.41,49.69,59.33,75.22c4.55,3.37,6.09,5.89,6.09,5.89S67.69,68,93.11,67.68c16.69-.21,22.22-10.67,24.4-19.12.46,9.87,5.26,20,11,24.76,4.3,3.5,8.44,3.56,11.83,2.45Z" transform="translate(-40.64 -23)"/></g></g></svg>